<svg width="62" height="27" viewBox="0 0 62 27" fill="none" xmlns="http://www.w3.org/2000/svg">
<path d="M19.0576 7.39746H12.8906V4.08691H19.0576V7.39746ZM18.8086 12.9639H12.7002V9.60938H18.8086V12.9639ZM22.5732 15.2637H18.3838V0H22.5732V15.2637ZM13.916 1.72852C13.916 4.19922 13.4668 6.37695 12.5684 8.26172C11.6699 10.1367 10.3125 11.7188 8.49609 13.0078C6.68945 14.2871 4.4043 15.3027 1.64062 16.0547L0 12.7295C2.2168 12.1631 4.02344 11.4404 5.41992 10.5615C6.81641 9.67285 7.83203 8.66211 8.4668 7.5293C9.10156 6.39648 9.41895 5.15137 9.41895 3.79395V1.72852H13.916ZM12.3633 5.09766H1.4502V1.72852H12.3633V5.09766ZM13.5645 15.6006C15.3809 15.6006 16.9873 15.8301 18.3838 16.2891C19.7803 16.748 20.8594 17.3926 21.6211 18.2227C22.3926 19.0527 22.7783 20.0293 22.7783 21.1523C22.7783 22.2559 22.3926 23.2324 21.6211 24.082C20.8594 24.9316 19.7803 25.5811 18.3838 26.0303C16.9873 26.4893 15.3809 26.7188 13.5645 26.7188C11.748 26.7188 10.1367 26.4893 8.73047 26.0303C7.33398 25.5811 6.25 24.9316 5.47852 24.082C4.70703 23.2324 4.32129 22.2559 4.32129 21.1523C4.32129 20.0293 4.70703 19.0527 5.47852 18.2227C6.25 17.3926 7.33398 16.748 8.73047 16.2891C10.1367 15.8301 11.748 15.6006 13.5645 15.6006ZM13.5645 18.8818C12.5098 18.8623 11.6016 18.9355 10.8398 19.1016C10.0879 19.2676 9.5166 19.5264 9.12598 19.8779C8.74512 20.2197 8.55469 20.6445 8.55469 21.1523C8.55469 21.6504 8.74512 22.0703 9.12598 22.4121C9.5166 22.7441 10.083 22.9932 10.8252 23.1592C11.5771 23.3252 12.4902 23.4082 13.5645 23.4082C14.6289 23.4082 15.5322 23.3252 16.2744 23.1592C17.0166 22.9932 17.583 22.7441 17.9736 22.4121C18.3643 22.0703 18.5596 21.6504 18.5596 21.1523C18.5596 20.6445 18.3643 20.2197 17.9736 19.8779C17.583 19.5264 17.0166 19.2676 16.2744 19.1016C15.5322 18.9355 14.6289 18.8623 13.5645 18.8818ZM42.3047 12.627C44.9902 12.627 47.0752 12.5879 48.5596 12.5098C50.0537 12.4219 51.5137 12.2461 52.9395 11.9824L53.335 15.3223C51.8799 15.5762 50.3613 15.7471 48.7793 15.835C47.207 15.9229 45.0488 15.9668 42.3047 15.9668H40.2393V12.627H42.3047ZM52.1484 10.1514H44.3994V14.8535H40.2393V7.0752H47.9443V4.79004H40.1953V1.50879H52.1484V10.1514ZM61.9775 16.5674H57.7881V0H61.9775V16.5674ZM58.5205 6.95801H53.6279V3.61816H58.5205V6.95801ZM58.5205 12.7002H53.6279V9.36035H58.5205V12.7002ZM61.9775 26.8506H57.7881V21.0205H43.3154V17.666H61.9775V26.8506Z" fill="white"/>
</svg>
