<svg width="78" height="27" viewBox="0 0 78 27" fill="none" xmlns="http://www.w3.org/2000/svg">
<path d="M9.97559 7.03125C9.97559 9.16992 9.69727 11.2256 9.14062 13.1982C8.59375 15.1709 7.75391 16.9238 6.62109 18.457C5.48828 19.9805 4.09668 21.123 2.44629 21.8848L0 18.5596C1.50391 17.8662 2.74414 16.9043 3.7207 15.6738C4.70703 14.4336 5.43945 13.0762 5.91797 11.6016C6.39648 10.1172 6.63574 8.59375 6.63574 7.03125V4.33594H9.97559V7.03125ZM10.8691 7.03125C10.8691 8.45703 11.0986 9.86816 11.5576 11.2646C12.0166 12.6611 12.7295 13.9453 13.6963 15.1172C14.6631 16.2891 15.874 17.2168 17.3291 17.9004L15 21.1963C13.3594 20.4541 11.9824 19.3506 10.8691 17.8857C9.75586 16.4111 8.9209 14.7412 8.36426 12.876C7.81738 11.001 7.54395 9.05273 7.54395 7.03125V4.33594H10.8691V7.03125ZM16.0986 5.99121H1.11328V2.56348H16.0986V5.99121ZM22.0166 26.8945H17.7832V0H22.0166V26.8945ZM25.8252 13.5938H21.0938V10.0928H25.8252V13.5938ZM41.0449 1.65527C41.0449 4.10645 40.5615 6.28418 39.5947 8.18848C38.6377 10.083 37.2217 11.6895 35.3467 13.0078C33.4814 14.3164 31.1816 15.332 28.4473 16.0547L26.8945 12.7002C29.043 12.1631 30.8398 11.4453 32.2852 10.5469C33.7402 9.64844 34.8291 8.63281 35.5518 7.5C36.2744 6.35742 36.6357 5.13184 36.6357 3.82324V1.65527H41.0449ZM39.3457 5.05371H28.4326V1.65527H39.3457V5.05371ZM49.3799 26.8213H45.1904V20.3467H30.791V17.0508H49.3799V26.8213ZM49.3799 15.9814H45.1904V0.0585938H49.3799V15.9814ZM45.835 7.54395H39.6973V4.24805H45.835V7.54395ZM45.5859 13.2715H39.4043V9.93164H45.5859V13.2715ZM77.0654 15.6445H52.5586V12.29H77.0654V15.6445ZM64.7607 16.875C66.7041 16.875 68.3838 17.0703 69.7998 17.4609C71.2158 17.8516 72.2949 18.4277 73.0371 19.1895C73.7793 19.9414 74.1504 20.8447 74.1504 21.8994C74.1504 22.9541 73.7793 23.8574 73.0371 24.6094C72.2949 25.3711 71.2158 25.9473 69.7998 26.3379C68.3936 26.7285 66.7139 26.9238 64.7607 26.9238C62.8076 26.9238 61.1182 26.7285 59.6924 26.3379C58.2764 25.9473 57.1875 25.3711 56.4258 24.6094C55.6738 23.8574 55.2979 22.9541 55.2979 21.8994C55.2979 20.8447 55.6787 19.9414 56.4404 19.1895C57.2021 18.4277 58.291 17.8516 59.707 17.4609C61.1328 17.0703 62.8174 16.875 64.7607 16.875ZM64.7607 20.127C63.5693 20.127 62.5928 20.1904 61.8311 20.3174C61.0791 20.4346 60.5176 20.625 60.1465 20.8887C59.7754 21.1523 59.5898 21.4893 59.5898 21.8994C59.5898 22.3096 59.7754 22.6465 60.1465 22.9102C60.5176 23.1641 61.0742 23.3545 61.8164 23.4814C62.5684 23.5986 63.5498 23.6572 64.7607 23.6572C65.9424 23.6572 66.9092 23.5986 67.6611 23.4814C68.4131 23.3545 68.9746 23.1641 69.3457 22.9102C69.7168 22.6465 69.9023 22.3096 69.9023 21.8994C69.9023 21.4893 69.7168 21.1523 69.3457 20.8887C68.9746 20.625 68.4131 20.4346 67.6611 20.3174C66.9092 20.1904 65.9424 20.127 64.7607 20.127ZM65.5811 3.48633C65.5811 4.85352 65.1953 6.10352 64.4238 7.23633C63.6621 8.35938 62.4805 9.29688 60.8789 10.0488C59.2773 10.8008 57.2852 11.2793 54.9023 11.4844L53.54 8.20312C55.4639 8.02734 57.0508 7.69043 58.3008 7.19238C59.5508 6.69434 60.459 6.12305 61.0254 5.47852C61.5918 4.83398 61.875 4.16992 61.875 3.48633V2.8125H65.5811V3.48633ZM67.6904 3.48633C67.6904 4.16992 67.9688 4.83398 68.5254 5.47852C69.0918 6.12305 70.0049 6.69434 71.2646 7.19238C72.5244 7.69043 74.1455 8.02734 76.1279 8.20312L74.6631 11.4844C72.2998 11.2793 70.3125 10.8008 68.7012 10.0488C67.0996 9.29688 65.8984 8.35938 65.0977 7.23633C64.3066 6.10352 63.9111 4.85352 63.9111 3.48633V2.8125H67.6904V3.48633ZM74.8535 4.58496H54.7705V1.21582H74.8535V4.58496Z" fill="white"/>
</svg>
