<svg width="63" height="28" viewBox="0 0 63 28" fill="none" xmlns="http://www.w3.org/2000/svg">
<path d="M15.9229 5.69824H0V2.40234H15.9229V5.69824ZM7.9834 6.37207C9.27246 6.37207 10.4248 6.58203 11.4404 7.00195C12.4561 7.42188 13.2422 8.0127 13.7988 8.77441C14.3652 9.52637 14.6484 10.3906 14.6484 11.3672C14.6484 12.3438 14.3652 13.2129 13.7988 13.9746C13.2422 14.7266 12.4561 15.3125 11.4404 15.7324C10.4248 16.1523 9.27246 16.3623 7.9834 16.3623C6.69434 16.3623 5.53711 16.1523 4.51172 15.7324C3.48633 15.3125 2.68555 14.7217 2.10938 13.96C1.5332 13.1982 1.24512 12.334 1.24512 11.3672C1.24512 10.3906 1.5332 9.52637 2.10938 8.77441C2.68555 8.0127 3.48633 7.42188 4.51172 7.00195C5.53711 6.58203 6.69434 6.37207 7.9834 6.37207ZM7.9834 9.50684C7.46582 9.50684 7.00684 9.5752 6.60645 9.71191C6.20605 9.84863 5.89844 10.0586 5.68359 10.3418C5.47852 10.6152 5.37598 10.957 5.37598 11.3672C5.37598 11.7676 5.47852 12.1045 5.68359 12.3779C5.89844 12.6416 6.20117 12.8418 6.5918 12.9785C6.98242 13.1055 7.44629 13.1689 7.9834 13.1689C8.52051 13.1689 8.98438 13.1055 9.375 12.9785C9.77539 12.8418 10.0879 12.6416 10.3125 12.3779C10.5371 12.1045 10.6494 11.7676 10.6494 11.3672C10.6494 10.957 10.5371 10.6152 10.3125 10.3418C10.0879 10.0586 9.77539 9.84863 9.375 9.71191C8.98438 9.5752 8.52051 9.50684 7.9834 9.50684ZM21.4453 17.0361H17.2119V0.117188H21.4453V17.0361ZM24.9316 10.3711H20.2588V6.95801H24.9316V10.3711ZM21.4453 27.0117H17.2119V21.3867H3.20801V18.0176H21.4453V27.0117ZM10.0928 4.2627H5.85938V0H10.0928V4.2627ZM42.5244 12.8027C45.21 12.8027 47.2949 12.7637 48.7793 12.6855C50.2734 12.5977 51.7334 12.4219 53.1592 12.1582L53.5547 15.498C52.0996 15.752 50.5811 15.9229 48.999 16.0107C47.4268 16.0986 45.2686 16.1426 42.5244 16.1426H40.459V12.8027H42.5244ZM52.3682 10.3271H44.6191V15.0293H40.459V7.25098H48.1641V4.96582H40.415V1.68457H52.3682V10.3271ZM62.1973 16.7432H58.0078V0.175781H62.1973V16.7432ZM58.7402 7.13379H53.8477V3.79395H58.7402V7.13379ZM58.7402 12.876H53.8477V9.53613H58.7402V12.876ZM62.1973 27.0264H58.0078V21.1963H43.5352V17.8418H62.1973V27.0264Z" fill="white"/>
</svg>
